#!OML:ASF E:\Steps\Project 1\Capture day 1\Session 2\Subject.ASF
:FULLY-SPECIFIED
:DEGREES
399
root 23.8637 15.7571 6.11703 -158.216 10.7553 180.261
lowerback -28.7829 0.694031 -5.79128
upperback 0.405915 3.55882 -1.69712
thorax 15.5472 1.35825 2.76172
lowerneck 3.70679 -1.84857 -2.41475
upperneck 13.8361 -2.10324 6.85196
head 4.0258 -0.442969 2.72903
rclavicle 1.41137e-014 -3.65764e-014
rhumerus -26.7483 -5.29359 -86.5704
rradius 46.7704
rwrist -9.43547
rhand -7.90984 -57.5263
rfingers 7.12502
rthumb 17.9956 273.286
lclavicle 1.41137e-014 -3.65764e-014
lhumerus -36.675 11.5737 71.3073
lradius 17.9565
lwrist -8.72448
lhand -21.8239 -10.9127
lfingers 7.12502
lthumb 4.57886 19.0178
rfemur -10.0066 8.34331 24.065
rtibia 14.2271
rfoot -26.9688 -2.99939
rtoes -35.7922
lfemur -48.8435 -10.7011 -2.83425
ltibia 4.98524
lfoot -6.67419 18.068
ltoes -26.6545
400
root 23.8603 15.729 5.94882 -158.129 11.1968 180.478
lowerback -28.8495 0.833895 -5.65916
upperback 0.295129 3.71097 -1.72393
thorax 15.4476 1.44674 2.71976
lowerneck 3.67394 -1.83371 -2.3208
upperneck 13.7302 -2.08382 6.71528
head 3.98718 -0.442693 2.66125
rclavicle -7.05686e-015 7.15625e-015
rhumerus -26.8893 -4.89086 -86.777
rradius 46.974
rwrist -9.1713
rhand -6.53606 -59.9077
rfingers 7.12502
rthumb 19.317 271.032
lclavicle -7.05686e-015 7.15625e-015
lhumerus -37.0241 11.7229 71.1792
lradius 17.7785
lwrist -8.67494
lhand -21.4807 -10.244
lfingers 7.12502
lthumb 4.91023 19.6791
rfemur -9.61939 8.31174 24.1251
rtibia 14.2274
rfoot -26.6201 -3.04398
rtoes -37.6875
lfemur -48.7631 -11.3834 -1.4457
ltibia 3.95519
lfoot -7.6232 19.9535
ltoes -26.9154
401
root 23.8536 15.7018 5.77877 -158.038 11.5687 180.681
lowerback -29.1287 0.973779 -5.42581
upperback 0.35646 3.8477 -1.78853
thorax 15.664 1.51531 2.58833
lowerneck 3.48009 -1.76733 -2.20699
upperneck 13.4239 -2.02091 6.58069
head 3.90412 -0.434846 2.58718
rclavicle 4.41302e-014 -4.85035e-014
rhumerus -26.8168 -4.37743 -87.0615
rradius 47.0766
rwrist -9.33871
rhand -6.33608 -59.3017
rfingers 7.12502
rthumb 19.5093 271.657
lclavicle 4.41302e-014 -4.85035e-014
lhumerus -37.0389 12.3866 70.8532
lradius 17.3535
lwrist -9.20617
lhand -21.3138 -10.3268
lfingers 7.12502
lthumb 5.07133 19.5925
rfemur -9.19012 8.21116 24.1172
rtibia 14.5561
rfoot -26.7309 -2.40429
rtoes -37.0703
lfemur -48.7239 -11.4589 -0.854442
ltibia 3.63924
lfoot -8.60853 21.1193
ltoes -26.3819
402
root 23.8478 15.6774 5.61308 -157.905 11.8411 180.725
lowerback -29.3438 1.00677 -5.36678
upperback 0.312036 3.90834 -1.86385
thorax 15.7193 1.55226 2.50535
lowerneck 3.40947 -1.6986 -2.15422
upperneck 13.3027 -1.93968 6.54772
head 3.86757 -0.402332 2.56489
rclavicle -8.94531e-015 3.18055e-015
rhumerus -27.1147 -3.69351 -87.3144
rradius 47.4015
rwrist -9.76199
rhand -7.84473 -55.7913
rfingers 7.12502
rthumb 18.0582 275.027
lclavicle -8.94531e-015 3.18055e-015
lhumerus -37.2448 13.2184 70.4056
lradius 16.9869
lwrist -9.82557
lhand -21.3535 -10.6857
lfingers 7.12502
lthumb 5.03302 19.2345
rfemur -8.80454 8.12751 23.9364
rtibia 14.8501
rfoot -26.9427 -1.72361
rtoes -36.4664
lfemur -48.8548 -11.3632 -0.740874
ltibia 3.89372
lfoot -8.56861 21.8451
ltoes -27.4702
403
root 23.8415 15.6544 5.44336 -157.875 12.2263 180.644
lowerback -29.3998 1.04417 -5.48246
upperback 0.143242 4.03265 -1.96402
thorax 15.5377 1.62262 2.50578
lowerneck 3.52859 -1.62407 -2.18056
upperneck 13.4132 -1.82654 6.60549
head 3.88047 -0.336055 2.59477
rclavicle -6.65929e-015 -3.65764e-014
rhumerus -27.512 -3.42883 -87.4792
rradius 47.6737
rwrist -9.39299
rhand -7.93347 -55.2509
rfingers 7.12502
rthumb 17.9729 275.56
lclavicle -6.65929e-015 -3.65764e-014
lhumerus -37.7246 13.6559 70.077
lradius 16.7572
lwrist -10.2077
lhand -21.3257 -10.168
lfingers 7.12502
lthumb 5.05987 19.7515
rfemur -8.46018 8.25123 23.5932
rtibia 15.3335
rfoot -27.0942 -1.2617
rtoes -36.4481
lfemur -48.8411 -11.0104 -1.11362
ltibia 4.47627
lfoot -7.43761 22.08
ltoes -30.5001
